<svg xmlns="http://www.w3.org/2000/svg" xml:space="preserve" width="2048" height="2048" style="shape-rendering:geometricPrecision;text-rendering:geometricPrecision;image-rendering:optimizeQuality;fill-rule:evenodd;clip-rule:evenodd"><defs><style>.fil19{fill:none}.fil18{fill:#202020;fill-rule:nonzero}.fil12,.fil13,.fil4{fill:#353535;fill-rule:nonzero}.fil13,.fil4{fill:#3e3e3e}.fil13{fill:#3f3f3f}.fil0,.fil3,.fil6{fill:#494949;fill-rule:nonzero}.fil3,.fil6{fill:#4b4b4b}.fil6{fill:#afafaf}.fil1,.fil11,.fil15{fill:#b3b3b3;fill-rule:nonzero}.fil1,.fil15{fill:#b9b9b9}.fil1{fill:#cecece}</style></defs><g id="Layer_x0020_1"><g id="_513939256"><path id="_513969808" class="fil0" d="M1011.51 1179.55c.899-7.906 2.101-15.834 3.498-23.758 1.396 7.924 2.599 15.852 3.5 23.758 7.786 68.473 5.721 139.162-3.5 207.184-9.22-68.022-11.294-138.711-3.498-207.184zm308.507-240.301c-4.6-41.153 4.566-82.266 8.578-123.604 3.142-32.418 12.821-58.812 13.024-105.574l-325.462-208.159c-.46 1.929-.754 3.857-1.148 5.794-.385-1.937-.697-3.865-1.148-5.794L704.452 711.317c-.935 42.678 2.47 70.083 5.613 102.52 4.003 41.327 4.545 84.259-.066 125.412-14.908 133.282-29.622 368.022-34.522 377.524-14.609 28.323-106.658 117.028-98.838 135.671 7.755 18.477 70.754 35.808 86.267 40.4 25.796 7.612 53.953 10.918 79.512 20.589 23.354 8.844 45.515 24.916 70.696 29.029 27.608 4.519 54-6.3 81.146-8.227 21.813-1.554 44.24-.01 66.134-.01 2.314 0 4.592.127 6.895.175-6.648 4.363-14.481 7.429-23.979 8.65 24.091.81 47.85-2.14 71.7-4.847 23.848 2.707 47.598 5.657 71.706 4.847-9.489-1.221-17.348-4.287-23.999-8.65 2.306-.048 4.593-.175 6.898-.175 21.905 0 44.339-1.544 66.149.01 27.15 1.927 53.533 12.746 81.138 8.227 25.185-4.113 47.344-20.185 70.708-29.03 25.538-9.67 53.716-12.976 79.493-20.588 15.52-4.593 78.522-21.923 86.271-40.4 7.834-18.642-84.215-107.348-98.834-135.671-2.227-4.315-22.193-267.295-34.523-377.524z"/><path id="_513963328" class="fil1" d="M1295.31 826.928c-1.13 0-2.205.376-3.335.506-19.874-173.325-135.69-306.497-276.033-306.497-140.613 0-256.631 133.696-276.164 307.49-22.71 6.849-39.804 36.33-39.804 71.677 0 38.592 20.454 69.87 46.296 72.626 18.496 89.266 63.075 164.69 122.491 212.345v84.206h279.38l-.433-85.023c67.132-46.627 118.178-115.384 138.069-212.392 3.095.871 6.271 1.405 9.534 1.405 27.557 0 49.893-32.759 49.893-73.167s-22.336-73.175-49.893-73.175z"/><path id="_513961960" d="M1235.04 1239.34s-10.561-79.91-54.624-54.984c-80.487 45.541-149.164 64.433-165.932 67.62-16.762-3.187-79.779-16.992-160.266-62.522-44.07-24.935-44.07 49.886-44.07 49.886l212.446 260.661 212.446-260.661z" style="fill:#fefeff;fill-rule:nonzero"/><path id="_513952384" class="fil3" d="m1608.57 1489.87-373.53-250.53-212.45 252.79-212.443-252.79-373.518 250.53.245 296.84H1610.21z"/><path id="_513962584" class="fil0" d="M1283.8 635.3c45.516 40.702 12.262 119.581-27.063 149.815-49.162 37.79-121.412 37.414-181.012 34.486-65.993-3.252-139.556-9.305-198.084 22.442-22.039 11.931-43.685 29.094-64.001 43.707-17.621 12.665-32.335 37.33-51.162 45.09-9.973-12.295-12.637-24.977-17.955-39.488-5.41-14.776-9.036-32.255-13.894-47.471-11.389-35.687-11.389-76.114-9.855-113.694 2.626-64.535 33.274-137.325 73.37-187.687 23.226-29.149 60.723-54.792 95.216-67.907 24.135-9.156 80.256-30.212 102.5-8.007L1283.8 635.3z"/><path id="_513966520" class="fil4" d="m1023.89 1542.29-.22-45.89.07 2.34.03-.02z"/><path id="_513956320" d="m1148.87 1183.46-.01-.458c21.049-14.622 40.52-31.419 57.93-50.576-17.393 19.332-36.862 36.284-57.92 51.034zm146.444-210.187c-2.968 0-5.86-.442-8.69-1.185.101-.497.203-.99.304-1.496 3.096.89 6.272 1.414 9.532 1.414 10.276 0 19.817-4.545 27.745-12.354.007.03.018.067.018.093-.385.405-.77.79-1.166 1.176-7.935 7.807-17.476 12.352-27.743 12.352z" style="fill:#a9a9a9;fill-rule:nonzero"/><path id="_513966568" class="fil6" d="M1326.68 840.611c-.283-.32-.578-.632-.872-.945 1.028-8.01 2.002-16.007 2.783-24.026 2.5-25.759 9.12-47.716 11.84-79.117.484.13.825.22 1.01.275-2.794 30.573-9.24 52.238-11.691 77.575-.854 8.752-1.94 17.497-3.07 26.238z"/><path id="_513944296" class="fil0" d="M1325.81 839.666c-7.136-7.632-15.703-12.544-24.997-13.73 6.897-31.309 6.693-65.177 5.399-97.017 0-.084-.01-.164-.01-.259 19.332 3.986 30.71 6.918 34.23 7.863-2.72 31.4-9.34 53.358-11.84 79.117-.78 8.019-1.755 16.016-2.782 24.026z"/><path id="_513945472" class="fil6" d="M1341.62 734.906v-26.852l1.155.744a326.345 326.345 0 0 1-1.155 26.108z"/><path id="_513945832" class="fil4" d="M1341.44 736.798c-.184-.054-.526-.145-1.01-.275-3.52-.945-14.898-3.877-34.23-7.863 0-.026-.008-.072-.008-.108 23.234 4.224 34.962 7.026 34.962 7.026V707.77l.46.283v26.853c-.057.635-.111 1.26-.174 1.892zm-322.504-226.735-.01-2.554c.017-.101.036-.203.054-.294l-.044 2.848z"/><path id="_513948520" style="fill:#eee;fill-rule:nonzero" d="M1016.2 1268.02v-.03z"/><path id="_513947848" d="m1147.8 1201.06-.09-16.807c.384-.266.77-.534 1.158-.8l.08 17.028c-.385.193-.77.387-1.148.579zm58.988-68.641c37.57-41.758 65.472-94.638 78.99-160.558.284.073.56.145.843.22-13.773 65.903-41.976 118.7-79.833 160.338z" style="fill:#3c3c3c;fill-rule:nonzero"/><path id="_513967648" d="M1325.9 957.907c11.746-13.38 19.303-34.293 19.303-57.803 0-23.75-7.713-44.862-19.68-58.234.1-.735.192-1.469.284-2.203.294.313.588.625.871.945 11.95 13.363 19.662 34.475 19.662 58.224 0 24.254-8.043 45.762-20.44 59.07z" style="fill:#dbdbdb;fill-rule:nonzero"/><path id="_513957952" class="fil4" d="m1235.08 1239.38-.045-.035s-7.909-59.797-38.562-59.797c-4.784 0-10.12 1.452-16.061 4.813a745.15 745.15 0 0 1-32.614 17.393v-.688c.378-.192.763-.386 1.148-.579a752.496 752.496 0 0 0 32.611-17.387c5.943-3.368 11.28-4.82 16.054-4.82 30.656 0 38.563 59.804 38.563 59.804l-1.094 1.296z"/><path id="_513951136" class="fil1" d="m1015.67 1251.75-.037-1.038c.23-.047.459-.091.707-.138 15.298-3.049 67.143-17.366 131.464-49.509v.688c-64.193 32.225-116.154 46.728-132.134 49.997z"/><path id="_513963448" d="m1023.49 1491.07-7.292-223.044v-.037l-.532-16.236c15.98-3.27 67.941-17.772 132.134-49.998a745.214 745.214 0 0 0 32.614-17.392c5.941-3.36 11.277-4.813 16.062-4.813 30.653 0 38.562 59.796 38.562 59.796L1023.49 1491.07z" style="fill:#bebebe;fill-rule:nonzero"/><path id="_513955360" class="fil3" d="m1023.74 1498.74-.07-2.34-.18-5.33 211.55-251.73.04.04-211.34 251.48.03 7.86z"/><path id="_513956008" class="fil11" d="M1611.37 1785.44h-1.167l-1.635-295.569-251.412-168.62a63.505 63.505 0 0 1-2.04-3.397l3.188 2.14 251.412 168.612 1.654 296.834z"/><path id="_513939976" class="fil12" d="m1357.16 1321.25-122.072-81.873 1.094-1.296 118.937 79.772a63.5 63.5 0 0 0 2.04 3.397z"/><path id="_513958048" class="fil13" d="M1610.2 1785.44h-585.63l-.68-243.15-.12-43.57-.03-7.86 211.34-251.48 122.08 81.87 251.41 168.62z"/><path id="_513962560" class="fil12" d="M1300.5 827.322c-.275-.044-.559-.08-.846-.12 6.9-31.307 6.696-65.186 5.403-97.015-.03-.588-.058-1.176-.084-1.773.414.084.825.167 1.228.247 0 .094.01.175.01.259 1.295 31.84 1.498 65.708-5.398 97.018-.102.467-.203.926-.313 1.384z"/><path id="_513964528" class="fil4" d="M1306.2 728.66c-.403-.08-.814-.163-1.228-.247-1.122-.229-2.278-.458-3.455-.698 1.609.285 3.169.57 4.676.836 0 .037.007.083.007.109z"/><path id="_513968776" class="fil11" d="m1468.56 424.507-445.969-163.214 446.162 162.425c-.065.255-.138.523-.193.789z"/><path id="_513943696" class="fil12" d="M1301.52 727.716c-49.214-8.76-143.962-22.801-282.351-31.215-.992-.055-1.976-.12-2.968-.175l.018-1.348 6.375-.414c137.975 8.265 230.511 23.408 278.926 33.152z"/><path id="_513955480" class="fil11" d="m1589.92 468.918-63.48-23.233v-.964l63.48 23.105z"/><path id="_513947008" style="fill:#4f5050;fill-rule:nonzero" d="M1525.98 534.885v-90.338l.46.174v90.036z"/><path id="_513962800" class="fil15" d="M1420.41 970.572c-5.014-9.956 12.647-53.883 39.856-112.035.294.12.6.23.9.341-26.43 56.433-43.978 99.635-40.756 111.693zm145.975-35.652c-7.163-19.59-18.533-45.486-32.437-75.187.045-.011.084-.018.128-.029 13.94 29.831 25.276 55.746 32.31 75.216zm-118.45-89.47a20.752 20.752 0 0 1-1.479-7.73c0-11.663 9.459-21.133 21.131-21.133h.221V552.022l.458-.128v265.96h-.21c-11.674 0-21.142 9.46-21.142 21.134 0 2.257.36 4.425 1.02 6.463zm21.341-420.684-.715-.258c.054-.266.127-.534.192-.789 3.27-12.483 14.63-21.685 28.139-21.685 12.775 0 23.63 8.229 27.535 19.683-4.254-10.793-14.769-18.433-27.066-18.433-13.435 0-24.742 9.1-28.085 21.482z"/><path id="_513952600" d="M1467.81 552.022V431.109c0-2.275.257-4.48.752-6.601l.716.257a29.33 29.33 0 0 0-1.01 7.613v119.517l-.458.127z" style="fill:#414141;fill-rule:nonzero"/><path id="_513970192" class="fil15" d="M1549.58 830.922c-3.169-7.667-10.719-13.068-19.533-13.068h-3.61v-1.267h3.142c9.293 0 17.173 5.998 20.001 14.335z"/><path id="_513947200" class="fil3" d="m1022.59 261.293 567.793 207.791v49.767l-248.77 67.315v150.679s-98.973-28.314-319.023-42.283c-214.329 12.847-319.024 42.283-319.024 42.283v-150.68l-248.768-67.314v-49.767l567.792-207.791z"/><path id="_513944080" class="fil13" d="M704.03 735.578s11.728-2.802 34.962-7.026c1.507-.266 3.067-.552 4.676-.837 48.414-9.744 140.95-24.887 278.926-33.152 2.132.138 4.261.276 6.375.415l-2.72-184.915-.045-2.848-3.61-245.922-445.97 163.214c.496 2.121.753 4.326.753 6.601v119.518l126.653 34.275v150.677z"/><path id="_513938728" class="fil13" d="M518.749 534.757v-89.072l-63.479 23.233v48.666z"/><path id="_513944704" d="M548.293 1007.81c24.098 0 48.196-11.995 75.543-35.993.378-.32.69-.742.938-1.246 3.222-12.06-14.325-55.26-40.756-111.693.301-.112.606-.22.9-.341-.148-.312-.286-.614-.432-.926 5.813-2.03 10.496-6.486 12.764-12.16a20.88 20.88 0 0 0 1.02-6.464c0-11.673-9.467-21.133-21.14-21.133h-.212V432.377c0-2.635-.359-5.189-1.01-7.613-3.342-12.381-14.649-21.481-28.084-21.481-12.297 0-22.812 7.64-27.066 18.433-1 2.947-1.55 6.104-1.55 9.392v385.478h-.46v1.267h-3.61c-8.814 0-16.364 5.402-19.533 13.068a21.046 21.046 0 0 0-1.122 6.797c0 10.333 7.412 18.909 17.213 20.738-.196.411-.395.836-.588 1.247.044.011.083.018.128.029-13.904 29.701-25.273 55.598-32.437 75.188-7.303 20.221-9.955 33.475-6.042 36.897 27.339 23.998 51.438 35.993 75.536 35.993z" style="fill:#525252;fill-rule:nonzero"/><path id="_513969832" class="fil18" d="M813.474 643.588c0 .27 0 .215.001 0h-.001z"/><path id="_513946456" class="fil18" d="M1234.49 643.588h-.001c.001.194.001.24.001 0z"/><path id="_513956512" class="fil19" d="M255.999 255.999h1536v1536h-1536z"/></g><path class="fil19" d="M0 0h2048v2048H0z"/></g></svg>