<svg xmlns="http://www.w3.org/2000/svg" xml:space="preserve" width="2048" height="2048" style="shape-rendering:geometricPrecision;text-rendering:geometricPrecision;image-rendering:optimizeQuality;fill-rule:evenodd;clip-rule:evenodd"><defs><style>.fil15{fill:none}.fil14,.fil3,.fil4{fill:#202020;fill-rule:nonzero}.fil3,.fil4{fill:#3e3e3e}.fil3{fill:#4b4b4b}.fil1,.fil11,.fil6{fill:#afafaf;fill-rule:nonzero}.fil1,.fil11{fill:#b3b3b3}.fil1{fill:#cecece}</style></defs><g id="Layer_x0020_1"><path d="M1320.02 939.244c-4.6-41.153 4.566-82.266 8.578-123.604 3.142-32.418 12.821-58.812 13.024-105.574L1016.16 501.907c-.46 1.929-.754 3.857-1.148 5.794-.385-1.937-.697-3.865-1.148-5.794L704.455 711.312c-.935 42.678 2.47 70.083 5.613 102.52 4.003 41.327 4.545 84.259-.066 125.412-6.823 60.993 31.82 140.581 26.004 212.756-6.893 85.54 197.496 211.174 194.838 216.329-205.397 398.202 384.774 74.661 317.163-56.33-2.226-4.313 84.343-262.525 72.013-372.754z" style="fill:#848484;fill-rule:nonzero"/><path class="fil1" d="M1295.31 826.928c-1.13 0-2.205.376-3.335.506-19.874-173.325-135.69-306.497-276.033-306.497-140.613 0-256.631 133.696-276.164 307.49-22.71 6.849-39.804 36.33-39.804 71.677 0 38.592 20.454 69.87 46.296 72.626 18.496 89.266 63.075 164.69 122.491 212.345v84.206h279.38l-.433-85.023c67.132-46.627 118.178-115.384 138.069-212.392 3.095.871 6.271 1.405 9.534 1.405 27.557 0 49.893-32.759 49.893-73.167s-22.336-73.175-49.893-73.175z"/><path d="M1235.04 1239.34s-10.561-79.91-54.624-54.984c-80.487 45.541-149.164 64.433-165.932 67.62-16.762-3.187-79.779-16.992-160.266-62.522-44.07-24.935-44.07 49.886-44.07 49.886l212.446 260.661 212.446-260.661z" style="fill:#fefeff;fill-rule:nonzero"/><path class="fil3" d="m1608.57 1489.87-373.53-250.53-212.45 252.79-212.443-252.79-373.518 250.53.245 296.84H1610.21z"/><path class="fil4" d="m1023.89 1542.29-.22-45.89.07 2.34.03-.02z"/><path d="m1148.87 1183.46-.01-.458c21.049-14.622 40.52-31.419 57.93-50.576-17.393 19.332-36.862 36.284-57.92 51.034zm146.444-210.187c-2.968 0-5.86-.442-8.69-1.185.101-.497.203-.99.304-1.496 3.096.89 6.272 1.414 9.532 1.414 10.276 0 19.817-4.545 27.745-12.354.007.03.018.067.018.093-.385.405-.77.79-1.166 1.176-7.935 7.807-17.476 12.352-27.743 12.352z" style="fill:#a9a9a9;fill-rule:nonzero"/><path class="fil6" d="M1326.68 840.611c-.283-.32-.578-.632-.872-.945 1.028-8.01 2.002-16.007 2.783-24.026 2.5-25.759 9.12-47.716 11.84-79.117.484.13.825.22 1.01.275-2.794 30.573-9.24 52.238-11.691 77.575-.854 8.752-1.94 17.497-3.07 26.238zM1341.62 734.906v-26.852l1.155.744a326.345 326.345 0 0 1-1.155 26.108z"/><path style="fill:#eee;fill-rule:nonzero" d="M1016.2 1268.02v-.03z"/><path d="m1147.8 1201.06-.09-16.807c.384-.266.77-.534 1.158-.8l.08 17.028c-.385.193-.77.387-1.148.579zm58.988-68.641c37.57-41.758 65.472-94.638 78.99-160.558.284.073.56.145.843.22-13.773 65.903-41.976 118.7-79.833 160.338z" style="fill:#3c3c3c;fill-rule:nonzero"/><path d="M1325.9 957.907c11.746-13.38 19.303-34.293 19.303-57.803 0-23.75-7.713-44.862-19.68-58.234.1-.735.192-1.469.284-2.203.294.313.588.625.871.945 11.95 13.363 19.662 34.475 19.662 58.224 0 24.254-8.043 45.762-20.44 59.07z" style="fill:#dbdbdb;fill-rule:nonzero"/><path class="fil4" d="m1235.08 1239.38-.045-.035s-7.909-59.797-38.562-59.797c-4.784 0-10.12 1.452-16.061 4.813a745.15 745.15 0 0 1-32.614 17.393v-.688c.378-.192.763-.386 1.148-.579a752.496 752.496 0 0 0 32.611-17.387c5.943-3.368 11.28-4.82 16.054-4.82 30.656 0 38.563 59.804 38.563 59.804l-1.094 1.296z"/><path class="fil1" d="m1015.67 1251.75-.037-1.038c.23-.047.459-.091.707-.138 15.298-3.049 67.143-17.366 131.464-49.509v.688c-64.193 32.225-116.154 46.728-132.134 49.997z"/><path d="m1023.49 1491.07-7.292-223.044v-.037l-.532-16.236c15.98-3.27 67.941-17.772 132.134-49.998a745.214 745.214 0 0 0 32.614-17.392c5.941-3.36 11.277-4.813 16.062-4.813 30.653 0 38.562 59.796 38.562 59.796L1023.49 1491.07z" style="fill:#bebebe;fill-rule:nonzero"/><path class="fil3" d="m1023.74 1498.74-.07-2.34-.18-5.33 211.55-251.73.04.04-211.34 251.48.03 7.86z"/><path class="fil11" d="M1611.37 1785.44h-1.167l-1.635-295.569-251.412-168.62a63.505 63.505 0 0 1-2.04-3.397l3.188 2.14 251.412 168.612 1.654 296.834z"/><path d="m1357.16 1321.25-122.072-81.873 1.094-1.296 118.937 79.772a63.5 63.5 0 0 0 2.04 3.397z" style="fill:#353535;fill-rule:nonzero"/><path style="fill:#3f3f3f;fill-rule:nonzero" d="M1610.2 1785.44h-585.63l-.68-243.15-.12-43.57-.03-7.86 211.34-251.48 122.08 81.87 251.41 168.62z"/><path class="fil4" d="M1306.2 728.66c-.403-.08-.814-.163-1.228-.247-1.122-.229-2.278-.458-3.455-.698 1.609.285 3.169.57 4.676.836 0 .037.007.083.007.109z"/><path class="fil11" d="m1468.56 424.507-445.969-163.214 446.162 162.425c-.065.255-.138.523-.193.789z"/><path class="fil3" d="m1022.59 261.293 567.793 207.791v49.767l-248.77 67.315v150.679c-36.266-51.404-202.382-174.884-319.023-42.283-168.111-125.12-302.027-8.458-319.024 42.283v-150.68l-248.768-67.314v-49.767l567.792-207.791z"/><path class="fil14" d="M813.474 643.588c0 .27 0 .215.001 0h-.001zM1234.49 643.588h-.001c.001.194.001.24.001 0z"/><path class="fil15" d="M255.999 255.999h1536v1536h-1536z"/><path class="fil15" d="M0 0h2048v2048H0z"/></g></svg>